<svg id="Layer_1" data-name="Layer 1" xmlns="http://www.w3.org/2000/svg" width="3.14in" height="0.96in" viewBox="0 0 225.94 69.25"><rect width="57.53" height="66.15" fill="#a32035"/><polygon points="48.91 4.71 8.62 4.71 4.41 4.71 4.41 8.63 4.41 24.46 8.62 24.46 8.62 8.63 48.91 8.63 48.91 24.15 52.92 24.15 52.92 8.63 52.92 4.71 48.91 4.71" fill="#fff"/><polygon points="15.23 48.71 15.23 52.72 22.25 52.72 26.36 52.72 26.36 48.71 26.36 17.64 26.36 13.53 22.25 13.53 17.44 13.53 13.33 13.53 13.33 17.64 13.33 24.35 17.44 24.35 17.44 17.64 22.25 17.64 22.25 48.71 15.23 48.71" fill="#fff"/><polygon points="35.32 13.48 31.21 13.48 31.21 17.59 31.21 48.66 31.21 52.67 35.32 52.67 42.34 52.67 42.34 48.66 35.32 48.66 35.32 17.59 40.14 17.59 40.14 24.3 44.25 24.3 44.25 17.59 44.25 13.48 40.14 13.48 35.32 13.48" fill="#fff"/><rect x="15.23" y="57.35" width="27.11" height="3.96" fill="#fff"/><path d="M128.91,27.68l3.87,1.25v1H120.47v-1l3.87-1.25V8.15H120l-1.69,4.91H116.8V6.38h19.64v6.68H135l-1.8-4.91h-4.25Z" transform="translate(-50.4 -1.75)"/><path d="M140,20.94v.31c0,4.15,2.73,6.71,6.32,6.71a18.1,18.1,0,0,0,4.12-.52l.24,1.31a24.37,24.37,0,0,1-7,1.49c-5,0-8.16-3.35-8.16-8.5,0-5.33,3.5-9.2,8.41-9.2,4.53,0,7,2.38,7,7.78v.62Zm6.36-1.83v-.35c0-3.56-1.28-4.84-2.94-4.84-2.11,0-3.39,2-3.39,5.12v.69Z" transform="translate(-50.4 -1.75)"/><path d="M159.71,27.68l2.46,1.25v1h-9.86v-1l3-1.25V15.44l-3-.93v-.9l7.4-1.28v2c3.29-1.39,4.32-1.8,5.74-1.8a3.93,3.93,0,0,1,3.63,2c3.67-1.56,4.95-2,6.54-2a4.69,4.69,0,0,1,4.77,5.08V27.68l3,1.25v1h-9.82v-1L176,27.68V19.11c0-2.73-1.21-4.12-3.6-4.12a9.14,9.14,0,0,0-2.8.45,5.5,5.5,0,0,1,.45,2.8v9.44l2.46,1.25v1H163.2v-1l2.46-1.25V19.14c0-2.66-1.18-4-3.53-4a10.1,10.1,0,0,0-2.42.27Z" transform="translate(-50.4 -1.75)"/><path d="M190,35.64l3.67,1.14v1h-11v-1l3-1.14V15.48l-2.84-.9v-.94L190,12.37v2.14a14.22,14.22,0,0,1,5.78-2c3.59,0,6.32,3.42,6.32,8a9.45,9.45,0,0,1-9.64,9.71,7.24,7.24,0,0,1-2.46-.38Zm0-7.3a6.58,6.58,0,0,0,1.42.14c3.91,0,6.12-2.59,6.12-7.26,0-4.26-1.52-6.16-4.84-6.16a12.52,12.52,0,0,0-2.7.31Z" transform="translate(-50.4 -1.75)"/><path d="M205.26,8.22l-3.15-.87v-1L209.65,5V27.68l2.94,1.25v1H202.25v-1l3-1.25Z" transform="translate(-50.4 -1.75)"/><path d="M217.14,20.94v.31c0,4.15,2.73,6.71,6.32,6.71a18.1,18.1,0,0,0,4.12-.52l.24,1.31a24.38,24.38,0,0,1-7,1.49c-5,0-8.16-3.35-8.16-8.5,0-5.33,3.49-9.2,8.4-9.2,4.53,0,7,2.38,7,7.78v.62Zm6.36-1.83v-.35c0-3.56-1.28-4.84-2.94-4.84-2.11,0-3.39,2-3.39,5.12v.69Z" transform="translate(-50.4 -1.75)"/><path d="M124,56.06c0,3.88,1.66,5.64,5.25,5.64,3.74,0,5.81-1.73,5.81-5.88v-14l-3-1.25v-1h8.61v1l-3,1.25V55.34c0,5.53-3.84,8.29-9.44,8.29-5.15,0-8.82-2.42-8.82-7.22V41.82l-3-1.25v-1H127v1l-3,1.25Z" transform="translate(-50.4 -1.75)"/><path d="M147.41,60.9,150,62.15v1H140v-1l3-1.25V48.66l-3-.83V46.9l7.4-1.31v2c4.12-1.66,4.6-1.77,6.16-1.77,2.9,0,4.49,1.94,4.49,5.12v10l3,1.25v1h-9.65v-1l2.29-1.25V51.84c0-2.31-1.14-3.45-3.39-3.45a11.69,11.69,0,0,0-2.91.27Z" transform="translate(-50.4 -1.75)"/><path d="M165.09,48.66l-3-.9v-.93l7.4-1.31V60.9l2.94,1.25v1H162.08v-1l3-1.25Zm4.7-8c0,1.41-.73,2.07-2.66,2.07s-2.56-.66-2.56-2.07.62-2.08,2.56-2.08S169.79,39.26,169.79,40.68Z" transform="translate(-50.4 -1.75)"/><path d="M173.15,47.87,171,46.93v-1h9.3v1l-2.48.94,2.69,7.43a21.3,21.3,0,0,1,.87,2.84l3.87-10-2.32-1.18v-1h6.85v1l-2,1.18-6.64,15.35h-1.94Z" transform="translate(-50.4 -1.75)"/><path d="M193.21,54.16v.31c0,4.15,2.73,6.71,6.32,6.71a18.1,18.1,0,0,0,4.12-.52l.24,1.31a24.38,24.38,0,0,1-7,1.49c-5,0-8.17-3.35-8.17-8.5,0-5.33,3.5-9.2,8.41-9.2,4.53,0,7,2.38,7,7.78v.62Zm6.36-1.83V52c0-3.56-1.28-4.84-2.94-4.84-2.11,0-3.39,2-3.39,5.12V53Z" transform="translate(-50.4 -1.75)"/><path d="M212.88,60.9l3.67,1.25v1H205.48v-1l3-1.25V48.66l-3-.9v-.93l7.4-1.28v2.18l1.84-1.07a7.29,7.29,0,0,1,3.42-1,4.26,4.26,0,0,1,2.07.55V50.5h-3.56l-.93-2.22a6,6,0,0,0-.76-.07,5.21,5.21,0,0,0-2.08.45Z" transform="translate(-50.4 -1.75)"/><path d="M221.85,58.38h2.35l1.66,3.32a.58.58,0,0,0,.24,0h.52c2.18,0,3.25-.83,3.25-2.45,0-1.14-.31-1.42-2-2.53L224.89,55c-2.24-1.35-3-2.45-3-4.36,0-2.83,2.39-4.87,5.67-4.87a25.06,25.06,0,0,1,5.53.79v3.77h-2.31l-1.56-3H229a1.64,1.64,0,0,1-.24,0c-1.94,0-3.08.7-3.08,2.18,0,1,.38,1.42,1.94,2.35l3.11,1.73a5,5,0,0,1,2.87,4.57c0,3.11-2.56,5.32-6.19,5.32a23.51,23.51,0,0,1-5.57-1Z" transform="translate(-50.4 -1.75)"/><path d="M238,48.66l-3-.9v-.93l7.4-1.31V60.9l2.94,1.25v1H235v-1l3-1.25Zm4.7-8c0,1.41-.73,2.07-2.66,2.07s-2.56-.66-2.56-2.07.62-2.08,2.56-2.08S242.71,39.26,242.71,40.68Z" transform="translate(-50.4 -1.75)"/><path d="M244.53,47.69V46.48a8.4,8.4,0,0,0,3.53-1.66,10.56,10.56,0,0,0,2.11-3.25h1.35v4.36h5.18v1.76h-5.18v11c0,2.17,1.38,2.59,3.14,2.59A20.46,20.46,0,0,0,257,61l.35,1.38c-3.91.94-4.53,1-5.71,1-2.59,0-4.46-.83-4.46-3.84V47.69Z" transform="translate(-50.4 -1.75)"/><path d="M259.61,47.83l-2-.9v-1h9.13v1l-2.46.9,2.77,7.4a18.34,18.34,0,0,1,1,3.08l3.73-10.24-2.39-1.14v-1h7v1l-2.18,1.25-7.64,18.88c-1.14,2.87-2.87,3.94-5.91,3.94a10.23,10.23,0,0,1-2.7-.31V67.33h2.84l.69,2.11c1.49-.24,2.49-1.24,3.42-3.59l1-2.6Z" transform="translate(-50.4 -1.75)"/></svg>